HIERARCHY
ROOT hip
{
	OFFSET 0.000000 0.000000 0.000000
	CHANNELS 6 Xposition Yposition Zposition Zrotation Yrotation Xrotation 
	JOINT lhipjoint
	{
		OFFSET 0.000000 0.000000 0.000000
		CHANNELS 3 Zrotation Yrotation Xrotation
		JOINT lfemur
		{
			OFFSET 1.363060 -1.794630 0.839290
			CHANNELS 3 Zrotation Yrotation Xrotation
			JOINT ltibia
			{
				OFFSET 2.448110 -6.726130 0.000000
				CHANNELS 3 Zrotation Yrotation Xrotation
				JOINT lfoot
				{
					OFFSET 2.562200 -7.039590 0.000000
					CHANNELS 3 Zrotation Yrotation Xrotation
					JOINT ltoes
					{
						OFFSET 0.157640 -0.433110 2.322550
						CHANNELS 3 Zrotation Yrotation Xrotation
						End Site
						{
							OFFSET 0.000000 0.000000 0.000000
						}
					}
				}
			}
		}
	}
	JOINT rhipjoint
	{
		OFFSET 0.000000 0.000000 0.000000
		CHANNELS 3 Zrotation Yrotation Xrotation
		JOINT rfemur
		{
			OFFSET -1.305520 -1.794630 0.839290
			CHANNELS 3 Zrotation Yrotation Xrotation
			JOINT rtibia
			{
				OFFSET -2.542530 -6.985550 0.000000
				CHANNELS 3 Zrotation Yrotation Xrotation
				JOINT rfoot
				{
					OFFSET -2.568260 -7.056230 0.000000
					CHANNELS 3 Zrotation Yrotation Xrotation
					JOINT rtoes
					{
						OFFSET -0.164730 -0.452590 2.363150
						CHANNELS 3 Zrotation Yrotation Xrotation
						End Site
						{
							OFFSET 0.000000 0.000000 0.000000
						}
					}
				}
			}
		}
	}
	JOINT lowerback
	{
		OFFSET 0.000000 0.000000 0.000000
		CHANNELS 3 Zrotation Yrotation Xrotation
		JOINT upperback
		{
			OFFSET 0.028270 2.035590 -0.193380
			CHANNELS 3 Zrotation Yrotation Xrotation
			JOINT thorax
			{
				OFFSET 0.056720 2.048850 -0.042750
				CHANNELS 3 Zrotation Yrotation Xrotation
				JOINT lowerneck
				{
					OFFSET 0.000000 0.000000 0.000000
					CHANNELS 3 Zrotation Yrotation Xrotation
					JOINT upperneck
					{
						OFFSET -0.054170 1.746240 0.172020
						CHANNELS 3 Zrotation Yrotation Xrotation
						JOINT head
						{
							OFFSET 0.104070 1.761360 -0.123970
							CHANNELS 3 Zrotation Yrotation Xrotation
							End Site
							{
								OFFSET 0.000000 0.000000 0.000000
							}
						}
					}
				}
				JOINT lclavicle
				{
					OFFSET 0.000000 0.000000 0.000000
					CHANNELS 3 Zrotation Yrotation Xrotation
					JOINT lhumerus
					{
						OFFSET 3.362410 1.200890 -0.311210
						CHANNELS 3 Zrotation Yrotation Xrotation
						JOINT lradius
						{
							OFFSET 4.983000 -0.000000 -0.000000
							CHANNELS 3 Zrotation Yrotation Xrotation
							JOINT lwrist
							{
								OFFSET 3.483560 -0.000000 -0.000000
								CHANNELS 3 Zrotation Yrotation Xrotation
								JOINT lhand
								{
									OFFSET 0.000000 0.000000 0.000000
									CHANNELS 3 Zrotation Yrotation Xrotation
									JOINT lfingers
									{
										OFFSET 0.715260 -0.000000 -0.000000
										CHANNELS 3 Zrotation Yrotation Xrotation
										End Site
										{
											OFFSET 0.000000 0.000000 0.000000
										}
									}
								}
								JOINT lthumb
								{
									OFFSET 0.000000 0.000000 0.000000
									CHANNELS 3 Zrotation Yrotation Xrotation
									End Site
									{
										OFFSET 0.000000 0.000000 0.000000
									}
								}
							}
						}
					}
				}
				JOINT rclavicle
				{
					OFFSET 0.000000 0.000000 0.000000
					CHANNELS 3 Zrotation Yrotation Xrotation
					JOINT rhumerus
					{
						OFFSET -3.136600 1.374050 -0.404650
						CHANNELS 3 Zrotation Yrotation Xrotation
						JOINT rradius
						{
							OFFSET -5.241900 -0.000000 -0.000000
							CHANNELS 3 Zrotation Yrotation Xrotation
							JOINT rwrist
							{
								OFFSET -3.444170 -0.000000 -0.000000
								CHANNELS 3 Zrotation Yrotation Xrotation
								JOINT rhand
								{
									OFFSET 0.000000 0.000000 0.000000
									CHANNELS 3 Zrotation Yrotation Xrotation
									JOINT rfingers
									{
										OFFSET -0.622530 -0.000000 -0.000000
										CHANNELS 3 Zrotation Yrotation Xrotation
										End Site
										{
											OFFSET 0.000000 0.000000 0.000000
										}
									}
								}
								JOINT rthumb
								{
									OFFSET 0.000000 0.000000 0.000000
									CHANNELS 3 Zrotation Yrotation Xrotation
									End Site
									{
										OFFSET 0.000000 0.000000 0.000000
									}
								}
							}
						}
					}
				}
			}
		}
	}
}
MOTION
Frames: 12
Frame Time: 0.008333
-27.905116 16.337080 24.120235 -174.470541 39.017392 -179.509523 3.764076 3.753064 -0.800186 -17.209999 6.908516 1.878932 2.850400 8.928191 29.730469 2.624017 -6.862625 -8.570944 0.213200 -2.972700 -8.202800 -7.425993 -4.862518 -0.765175 33.613824 -4.802330 -23.079756 -8.482759 -14.603969 49.941720 -0.114312 -3.884469 -13.187089 -1.809100 -8.456600 24.109800 0.994855 -1.025374 13.260033 1.139655 -0.629415 -2.094669 1.817597 0.606581 5.941989 -7.456335 -5.684968 -12.742257 15.150043 -10.514106 12.680622 4.650800 -4.590600 2.075200 3.329807 -9.169824 4.004170 -75.684418 -0.039491 42.231454 16.333671 -34.961267 -4.145468 -0.455190 3.126930 -51.471087 18.619481 -6.634593 -2.707800 -7.125000 0.000000 0.000000 -7.477900 20.440700 4.432900 0.780112 8.213976 4.863527 79.148407 -9.491137 29.843457 -25.254515 37.745728 -6.308751 0.795399 -4.321720 -12.588037 -18.593393 -0.655759 -1.344500 7.125000 0.000000 0.000000 6.109100 -25.743000 2.864800 
-27.868454 16.331083 24.088700 -174.453423 39.371292 -179.443581 3.753443 3.759342 -0.804521 -17.175453 7.109354 2.134472 2.821836 8.862908 29.539324 2.616194 -6.764237 -8.784157 0.207400 -2.932300 -8.090300 -7.433061 -4.873020 -0.775000 33.663868 -4.998899 -23.127442 -8.450070 -14.572793 49.806760 -0.124159 -3.932737 -13.447529 -1.861600 -8.571700 24.464600 0.935254 -1.126050 13.112096 1.160367 -0.775310 -2.099610 1.865618 0.523353 6.048294 -7.416259 -5.596856 -12.988105 15.042223 -10.339466 12.744086 4.572400 -4.492400 2.124600 3.330995 -9.109442 3.988095 -75.558000 -0.653680 42.371779 16.736862 -35.289999 -4.238078 -0.488495 3.126682 -51.511652 18.386517 -6.523306 -2.644100 -7.125000 0.000000 0.000000 -7.632600 20.547900 4.507600 0.778262 8.218150 4.840921 79.308522 -9.652510 29.492384 -24.830863 37.416890 -6.172115 0.790238 -4.315285 -12.720270 -18.531525 -0.702140 -1.319600 7.125000 0.000000 0.000000 6.169000 -25.804300 2.884300 
-27.831212 16.325762 24.057068 -174.434463 39.727856 -179.381736 3.743577 3.765239 -0.808306 -17.144189 7.323451 2.391174 2.795572 8.798890 29.355826 2.596656 -6.611514 -9.014462 0.216800 -2.997400 -8.271500 -7.441512 -4.880980 -0.781921 33.716387 -5.130989 -23.133021 -8.417080 -14.540089 49.669649 -0.127584 -3.992566 -13.623263 -1.919000 -8.695300 24.846600 0.885022 -1.233089 12.980931 1.180687 -0.930115 -2.108175 1.907944 0.435435 6.130216 -7.360926 -5.519435 -13.225045 14.907713 -10.171749 12.819220 4.478900 -4.398700 2.176800 3.337529 -9.052603 3.968959 -75.488977 -1.258410 42.397840 17.114444 -35.598965 -4.327965 -0.507577 3.126103 -51.445724 18.105366 -6.521523 -2.601400 -7.125000 0.000000 0.000000 -7.823100 20.552000 4.621500 0.779557 8.234781 4.821724 79.433856 -9.866790 29.229160 -24.465745 37.127792 -6.053574 0.794221 -4.308964 -12.873251 -18.461736 -0.809303 -1.275400 7.125000 0.000000 0.000000 6.231600 -25.927200 2.895900 
-27.793292 16.320539 24.026017 -174.390549 40.117126 -179.301538 3.737322 3.765722 -0.809984 -17.156586 7.391860 2.718710 2.773937 8.737464 29.186528 2.551687 -6.316659 -9.362650 0.220000 -3.019400 -8.332900 -7.452964 -4.888188 -0.782514 33.797496 -5.174080 -23.104514 -8.384285 -14.506225 49.533418 -0.124304 -4.052727 -13.693213 -1.967100 -8.797100 25.162800 0.872388 -1.309497 12.881937 1.196999 -1.045106 -2.121632 1.931926 0.370733 6.160930 -7.339139 -5.439820 -13.428906 14.805845 -10.008430 12.875109 4.414600 -4.307900 2.230900 3.345482 -9.017099 3.948716 -75.467981 -1.828300 42.368519 17.504390 -35.915986 -4.424273 -0.513389 3.126606 -51.321053 17.783704 -6.647999 -2.584200 -7.125000 0.000000 0.000000 -8.044800 20.433900 4.776600 0.766372 8.261578 4.799705 79.587851 -10.107312 28.862910 -24.085677 36.826294 -5.933820 0.795674 -4.304788 -12.977610 -18.380347 -0.906875 -1.234400 7.125000 0.000000 0.000000 6.301900 -26.038600 2.912400 
-27.756437 16.314348 23.995352 -174.393203 40.523749 -179.246788 3.731397 3.766727 -0.811299 -17.211292 7.480215 2.997543 2.758521 8.686655 29.052929 2.497543 -5.990021 -9.701021 0.233600 -3.111000 -8.588000 -7.464251 -4.892761 -0.780644 33.843624 -5.172702 -23.067273 -8.353243 -14.474031 49.403991 -0.117697 -4.105609 -13.696369 -1.992900 -8.851200 25.331000 0.828164 -1.376831 12.808822 1.212098 -1.149420 -2.137447 1.978042 0.308864 6.171310 -7.354625 -5.376439 -13.641782 14.705537 -9.863350 12.929179 4.359000 -4.225900 2.299300 3.362566 -8.987166 3.924160 -75.517193 -2.415971 42.263743 17.876316 -36.228101 -4.525405 -0.505738 3.134473 -51.125069 17.504173 -6.886089 -2.601300 -7.125000 0.000000 0.000000 -8.241000 20.200400 4.939200 0.738832 8.290312 4.771138 79.759591 -10.295482 28.382767 -23.639683 36.465244 -5.793621 0.790917 -4.297767 -12.940007 -18.260969 -1.002088 -1.190400 7.125000 0.000000 0.000000 6.397700 -26.153600 2.939900 
-27.718614 16.307867 23.964881 -174.373200 40.937707 -179.191991 3.725730 3.764943 -0.808554 -17.264803 7.471982 3.302251 2.749229 8.646623 28.952985 2.447492 -5.674370 -10.065392 0.227600 -3.070900 -8.476200 -7.478570 -4.896365 -0.780318 33.928391 -5.162231 -22.984387 -8.323259 -14.441041 49.279406 -0.107690 -4.149638 -13.631008 -1.998100 -8.862200 25.365300 0.793797 -1.440516 12.779471 1.231060 -1.246384 -2.157833 2.087290 0.249299 6.136931 -7.482835 -5.293499 -13.815134 14.630085 -9.695556 12.974660 4.347600 -4.135700 2.370500 3.384317 -8.979233 3.895322 -75.681807 -2.981746 42.059345 18.224959 -36.542385 -4.634791 -0.483707 3.154908 -50.873052 17.305159 -7.250330 -2.662200 -7.125000 0.000000 0.000000 -8.388200 19.832000 5.099300 0.706407 8.318969 4.745156 79.856563 -10.533783 27.937986 -23.219856 36.101034 -5.664641 0.789224 -4.288388 -12.907447 -18.168947 -1.131305 -1.137600 7.125000 0.000000 0.000000 6.472100 -26.304200 2.951600 
-27.680114 16.301386 23.934217 -174.347987 41.353124 -179.137230 3.718725 3.764395 -0.807225 -17.267082 7.588455 3.523566 2.746916 8.619913 28.894932 2.412495 -5.444944 -10.350292 0.229400 -3.082800 -8.509400 -7.490323 -4.901968 -0.782154 34.021396 -5.193134 -22.891545 -8.293792 -14.410165 49.161403 -0.099863 -4.145885 -13.503243 -1.983600 -8.831900 25.270900 0.783038 -1.495546 12.756810 1.245705 -1.332701 -2.176940 2.152277 0.200536 6.099475 -7.618546 -5.224695 -13.969197 14.581859 -9.556487 13.004742 4.356800 -4.060300 2.440200 3.397454 -8.977879 3.872721 -75.825295 -3.531513 41.858868 18.613713 -36.879527 -4.770525 -0.459503 3.183797 -50.633340 17.291692 -7.648172 -2.765000 -7.125000 0.000000 0.000000 -8.408400 19.411300 5.191800 0.659387 8.343752 4.713795 80.016929 -10.736694 27.323537 -22.746647 35.705671 -5.519557 0.775817 -4.277075 -12.670420 -18.010948 -1.205410 -1.097200 7.125000 0.000000 0.000000 6.591800 -26.404600 2.991200 
-27.640744 16.293840 23.904230 -174.320029 41.761421 -179.078886 3.713403 3.761947 -0.806686 -17.279070 7.671140 3.758001 2.750076 8.601953 28.865626 2.378392 -5.211659 -10.661214 0.236700 -3.131200 -8.644300 -7.503985 -4.905637 -0.780913 34.124467 -5.153124 -22.770045 -8.267659 -14.380908 49.054763 -0.087939 -4.171752 -13.370074 -1.955600 -8.773000 25.087800 0.775509 -1.556618 12.747817 1.259147 -1.426677 -2.195865 2.205789 0.149859 6.059684 -7.777565 -5.137868 -14.130854 14.565676 -9.398338 13.028711 4.389600 -3.973800 2.515900 3.406353 -8.979272 3.851001 -75.973666 -4.093819 41.651145 19.024538 -37.230379 -4.923740 -0.435540 3.219514 -50.533381 17.379195 -8.088362 -2.897100 -7.125000 0.000000 0.000000 -8.365100 18.938900 5.253400 0.604303 8.362672 4.678706 80.167702 -10.894173 26.680980 -22.241554 35.285101 -5.366810 0.753817 -4.263188 -12.338163 -17.844358 -1.237916 -1.068600 7.125000 0.000000 0.000000 6.717200 -26.466200 3.039100 
-27.599535 16.286682 23.873662 -174.291290 42.188971 -179.035615 3.708156 3.759816 -0.809211 -17.265127 7.827149 3.995587 2.758404 8.591087 28.862661 2.348052 -5.001733 -10.946778 0.245800 -3.190100 -8.808400 -7.517412 -4.907713 -0.783824 34.229245 -5.110846 -22.613068 -8.242071 -14.352441 48.952335 -0.078810 -4.163320 -13.212809 -1.911600 -8.679400 24.797500 0.779893 -1.609428 12.743047 1.268218 -1.507336 -2.208805 2.224349 0.109356 6.049382 -7.927928 -5.055741 -14.306286 14.539455 -9.244960 13.057633 4.420400 -3.889800 2.592600 3.399593 -8.974068 3.834138 -76.074085 -4.640678 41.510339 19.508321 -37.628496 -5.105062 -0.420642 3.257661 -50.524978 17.572732 -8.481057 -3.041200 -7.125000 0.000000 0.000000 -8.249200 18.500300 5.260100 0.555535 8.375789 4.646439 80.331551 -11.055496 26.059841 -21.814722 34.939704 -5.249499 0.736972 -4.257321 -12.010880 -17.757773 -1.316766 -1.034600 7.125000 0.000000 0.000000 6.780700 -26.562100 3.052900 
-27.558811 16.279040 23.843965 -174.260902 42.593055 -178.985300 3.704013 3.755417 -0.810608 -17.273144 7.900013 4.249125 2.766919 8.582300 28.866052 2.312279 -4.774781 -11.222953 0.245500 -3.188100 -8.802900 -7.533208 -4.907179 -0.782991 34.335048 -4.991957 -22.437794 -8.220029 -14.325803 48.861725 -0.066521 -4.184446 -13.062468 -1.880600 -8.612800 24.591500 0.786243 -1.680767 12.746507 1.280065 -1.611412 -2.223051 2.255228 0.056306 6.031871 -8.095316 -4.956892 -14.474117 14.519064 -9.069437 13.093030 4.460200 -3.795300 2.669200 3.386680 -8.971221 3.818992 -76.180235 -5.153503 41.327428 20.056464 -38.077912 -5.313283 -0.418117 3.299053 -50.576077 17.807118 -8.786362 -3.175900 -7.125000 0.000000 0.000000 -8.105200 18.137400 5.232000 0.510384 8.386381 4.614965 80.436099 -11.189847 25.523052 -21.402526 34.595968 -5.132200 0.718288 -4.245795 -11.658528 -17.643813 -1.373267 -1.004200 7.125000 0.000000 0.000000 6.864000 -26.642300 3.077900 
-27.516538 16.271398 23.814171 -174.228556 43.024468 -178.950240 3.700852 3.750887 -0.814084 -17.276216 8.020659 4.527771 2.775738 8.569987 28.863708 2.262877 -4.481557 -11.545370 0.271200 -3.349600 -9.253700 -7.551842 -4.902823 -0.780663 34.452091 -4.786702 -22.199491 -8.202160 -14.300526 48.785201 -0.051996 -4.241340 -12.952934 -1.853700 -8.554400 24.411100 0.797352 -1.734817 12.778515 1.288116 -1.690970 -2.236471 2.267523 0.015745 6.004004 -8.238222 -4.859957 -14.647941 14.484086 -8.890655 13.130403 4.487800 -3.698900 2.746200 3.372283 -8.969501 3.802971 -76.282825 -5.639181 41.130229 20.622101 -38.531789 -5.524517 -0.421013 3.335383 -50.594405 17.971115 -9.026604 -3.281500 -7.125000 0.000000 0.000000 -8.006300 17.844800 5.219000 0.469915 8.405206 4.585637 80.556132 -11.339751 24.994507 -21.064998 34.315732 -5.042902 0.699556 -4.240073 -11.353758 -17.581478 -1.403231 -0.987700 7.125000 0.000000 0.000000 6.909800 -26.686200 3.091600 
-27.473105 16.264143 23.784377 -174.190571 43.446527 -178.906184 3.698136 3.745916 -0.818845 -17.282852 8.133649 4.799628 2.783952 8.556278 28.856821 2.200570 -4.128860 -11.905420 0.311100 -3.585800 -9.914300 -7.572293 -4.895946 -0.776699 34.584446 -4.527637 -21.945073 -8.189814 -14.279340 48.730263 -0.032455 -4.338136 -12.846876 -1.825500 -8.492700 24.220900 0.808082 -1.798289 12.795371 1.297337 -1.781275 -2.247672 2.270242 -0.031853 6.001860 -8.343514 -4.756177 -14.860588 14.433674 -8.696029 13.196984 4.495700 -3.592300 2.835600 3.352361 -8.954912 3.787840 -76.343552 -6.119480 40.972605 21.276178 -39.044627 -5.760794 -0.444797 3.368397 -50.800740 18.089396 -9.132496 -3.343700 -7.125000 0.000000 0.000000 -7.935600 17.688900 5.199500 0.437542 8.422470 4.555251 80.669976 -11.437862 24.516775 -20.740137 34.049661 -4.959364 0.677634 -4.234932 -11.023958 -17.545931 -1.418650 -0.977600 7.125000 0.000000 0.000000 6.935500 -26.713600 3.098700 
